<?xml version="1.0" standalone="no"?>
<!DOCTYPE svg PUBLIC "-//W3C//DTD SVG 20010904//EN"
 "http://www.w3.org/TR/2001/REC-SVG-20010904/DTD/svg10.dtd">
<svg version="1.0" xmlns="http://www.w3.org/2000/svg"
 width="1875.000000pt" height="1250.000000pt" viewBox="0 0 1875.000000 1250.000000"
 preserveAspectRatio="xMidYMid meet">

<g transform="translate(0.000000,1250.000000) scale(0.100000,-0.100000)"
fill="#000000" stroke="none">
<path d="M9042 10571 c-47 -12 -78 -45 -91 -96 -6 -24 -18 -46 -28 -49 -9 -4
-51 -4 -93 0 -61 5 -94 2 -166 -16 -102 -26 -130 -38 -179 -82 -67 -58 -100
-154 -89 -257 9 -86 24 -128 72 -198 52 -76 96 -117 157 -147 49 -24 50 -24
23 -31 -16 -4 -28 -11 -28 -16 0 -5 -9 -9 -20 -9 -23 0 -62 -39 -95 -95 -22
-38 -23 -43 -10 -101 7 -33 18 -70 24 -82 13 -25 67 -67 98 -77 13 -3 25 -16
27 -28 42 -208 85 -310 170 -406 32 -35 62 -75 67 -89 15 -39 12 -191 -5 -248
-20 -63 -42 -84 -138 -129 -99 -45 -140 -45 -253 0 -48 19 -96 40 -108 47 -11
6 -53 14 -91 19 -142 16 -271 -36 -385 -156 -75 -79 -136 -176 -182 -288 -17
-40 -35 -77 -42 -84 -9 -9 -223 -13 -897 -15 l-885 -3 -10 102 c-5 56 -12 104
-16 107 -12 12 -234 25 -245 14 -2 -3 0 -52 5 -109 5 -57 6 -108 1 -112 -4 -5
-179 -9 -389 -10 -209 -1 -381 -4 -382 -7 -8 -70 -14 -778 -7 -785 4 -4 21 -2
38 4 24 8 38 8 53 -1 23 -12 421 -13 440 -1 19 11 241 2 249 -10 4 -7 8 -33 8
-59 0 -46 -1 -47 -37 -56 -21 -5 -186 -10 -368 -11 -181 -2 -348 -6 -370 -10
l-40 -7 2 -109 c3 -164 44 -648 56 -664 10 -11 76 -13 384 -9 l373 5 0 -73 0
-74 -77 0 c-176 -1 -572 -13 -628 -19 l-60 -6 0 -130 c1 -190 15 -645 21 -683
8 -41 19 -48 50 -27 13 9 29 13 35 9 6 -3 120 -5 253 -4 132 2 279 4 326 4
l85 1 6 -75 c3 -41 7 -180 8 -307 l2 -233 -238 -2 c-131 -1 -254 -2 -273 -3
-19 -1 -86 -2 -147 -3 -109 -2 -113 -3 -113 -24 l0 -21 848 6 c466 4 1000 8
1187 9 l340 3 11 -75 c7 -41 10 -78 8 -82 -2 -3 -145 -7 -316 -7 -172 -1 -515
-4 -763 -6 -247 -3 -657 -6 -910 -8 l-460 -2 -12 75 c-14 80 -10 90 35 90 23
0 30 14 11 26 -6 3 -36 8 -65 11 -42 3 -56 0 -60 -12 -4 -8 -2 -21 4 -28 6 -6
15 -46 21 -87 18 -118 26 -146 42 -140 8 3 102 6 210 8 l196 3 7 -23 c3 -13 6
-39 6 -58 0 -41 37 -365 60 -530 5 -36 16 -123 24 -195 9 -71 20 -166 26 -210
11 -84 90 -723 110 -885 22 -182 29 -264 23 -290 -3 -17 1 -31 11 -39 9 -8 16
-17 16 -22 0 -6 -138 -9 -320 -9 -176 1 -325 -2 -330 -5 -13 -8 -13 -32 0 -40
5 -3 607 -8 1337 -11 865 -3 1339 -9 1361 -15 22 -7 108 -7 277 1 134 7 502
13 817 15 315 1 582 3 593 3 11 1 81 0 155 -1 l135 -2 3 -32 c3 -28 6 -31 35
-31 18 0 201 -4 407 -9 206 -6 379 -8 383 -6 5 3 5 23 2 44 l-7 39 239 0 c131
1 659 1 1173 1 514 -1 948 3 965 7 24 7 31 15 36 43 10 62 97 212 193 334 52
66 100 121 105 123 17 6 13 -70 -8 -129 -10 -30 -35 -88 -56 -129 -50 -99 -67
-148 -54 -156 6 -3 23 5 37 19 74 69 264 169 438 232 198 71 406 106 453 76
17 -11 7 -43 -18 -56 -11 -6 -66 -40 -124 -77 -233 -149 -477 -266 -607 -290
-53 -9 -80 -22 -80 -38 0 -10 942 -7 958 3 18 12 15 35 -5 41 -10 3 -108 21
-218 41 -110 19 -218 39 -239 43 l-40 7 84 45 c108 58 287 182 322 223 30 35
36 68 15 85 -7 6 -43 16 -80 22 -73 13 -193 2 -272 -26 -22 -7 -49 -14 -60
-14 -23 0 -198 -71 -285 -115 -30 -15 -81 -45 -113 -67 -33 -22 -61 -38 -63
-36 -2 3 10 36 26 75 53 127 56 227 8 257 -53 32 -261 -242 -347 -457 l-11
-28 -102 3 -103 3 1 55 c0 30 6 163 13 295 16 289 18 346 26 585 3 102 10 286
15 410 5 124 14 389 20 590 7 203 16 369 21 375 6 6 91 11 200 13 218 4 216 3
206 96 -3 28 -1 76 4 106 6 40 5 56 -4 62 -6 5 -179 6 -382 2 -308 -5 -372 -4
-382 7 -12 16 -83 670 -74 681 9 11 174 18 459 22 259 3 266 4 257 51 -12 58
-16 131 -20 326 -5 247 -20 458 -33 471 -5 5 -168 3 -377 -3 l-368 -12 -18 24
c-9 13 -15 28 -11 33 3 6 5 25 4 42 l-2 32 142 6 c119 6 402 13 587 15 l44 1
-7 148 c-23 482 -31 590 -45 606 -14 16 -44 17 -407 11 l-391 -6 -13 65 c-6
35 -9 69 -5 75 3 6 32 11 64 11 31 0 62 5 69 12 8 8 18 9 34 1 25 -11 530 -9
548 2 6 4 8 14 4 24 -4 9 -8 43 -9 76 -6 120 -36 550 -40 563 -6 18 -621 18
-628 0 -4 -10 -6 -10 -6 0 -1 9 -11 11 -35 7 -60 -12 -72 3 -85 107 -7 51 -17
112 -23 135 l-10 42 -154 -2 -154 -2 -5 -30 c-3 -16 -1 -77 3 -135 5 -58 7
-108 5 -112 -3 -5 -194 -12 -303 -10 -14 0 -187 0 -386 1 l-361 1 -36 56 c-21
31 -37 60 -37 65 0 5 -4 9 -9 9 -5 0 -12 8 -15 18 -9 27 -104 119 -135 130
-85 30 -115 34 -289 37 -148 2 -195 6 -227 20 -168 71 -231 125 -257 220 -39
142 -47 297 -22 421 19 95 72 224 90 224 7 0 28 -9 46 -20 53 -32 113 -25 160
19 108 99 120 154 61 262 -16 31 -23 56 -20 71 4 13 44 80 90 150 101 152 114
178 132 266 21 99 7 154 -57 227 -51 59 -98 77 -208 81 l-95 3 -7 57 c-9 69
-43 141 -80 167 -43 32 -58 17 -58 -54 l0 -62 -22 29 c-71 94 -158 163 -255
199 -74 28 -160 39 -211 26z m126 -680 c35 -12 83 -36 108 -54 55 -38 113
-127 119 -182 4 -31 14 -49 45 -76 22 -20 40 -40 40 -43 0 -4 -32 -6 -72 -4
-70 3 -72 4 -79 32 -10 36 -42 71 -98 107 -57 37 -113 38 -180 4 -52 -26 -79
-56 -104 -117 -13 -32 -21 -38 -46 -38 -24 0 -30 5 -36 29 -11 49 -62 110
-113 134 -54 26 -55 30 -16 124 29 69 26 67 154 94 104 22 193 18 278 -10z
m-513 -231 c3 -5 3 -32 -1 -60 l-7 -50 -53 0 c-68 0 -71 17 -12 77 42 43 61
52 73 33z m103 -7 c42 -27 71 -61 78 -91 3 -15 8 -33 10 -41 3 -8 -3 -39 -12
-68 -21 -66 -71 -113 -121 -113 -42 0 -46 16 -41 167 5 158 22 186 86 146z
m435 4 c45 -19 105 -89 113 -132 13 -71 -17 -160 -67 -195 -15 -11 -48 -24
-74 -29 -40 -7 -53 -5 -97 17 -43 21 -54 33 -75 79 -74 162 49 322 200 260z
m-558 -176 c3 -20 5 -57 4 -83 -3 -62 -24 -64 -74 -6 -65 76 -58 122 18 124
45 1 46 0 52 -35z m888 -1 c5 -4 11 -35 14 -69 7 -73 22 -79 57 -22 33 51 62
71 106 71 87 0 144 -104 106 -193 -17 -39 -71 -92 -109 -106 -31 -12 -82 3
-106 32 -21 26 -29 21 -55 -30 -32 -64 -138 -205 -179 -238 -17 -14 -41 -33
-51 -42 -11 -9 -49 -29 -85 -46 -129 -61 -256 -32 -371 83 -67 66 -130 189
-154 297 -21 93 -21 90 17 96 17 3 43 8 56 12 20 7 22 5 17 -13 -4 -11 0 -37
8 -56 13 -30 20 -36 46 -36 l32 0 -26 31 c-32 38 -32 44 1 152 27 86 28 88 57
85 26 -3 30 -8 43 -58 9 -37 23 -64 43 -82 17 -15 30 -33 30 -38 0 -18 82 -50
130 -50 100 0 178 70 187 167 3 27 6 53 8 58 3 12 165 7 178 -5z m-533 -785
c38 -40 123 -67 232 -73 92 -4 99 -3 143 22 52 31 65 28 65 -16 0 -43 28 -147
50 -184 17 -30 17 -33 1 -57 -63 -96 -157 -165 -265 -197 -166 -48 -313 8
-385 145 -12 22 -21 46 -21 53 0 8 18 31 40 51 47 42 78 119 87 217 7 71 16
78 53 39z m-551 -300 c81 -33 134 -48 182 -52 l68 -6 30 -61 c36 -74 88 -136
147 -177 140 -96 346 -97 494 -4 51 33 160 132 199 182 19 24 37 42 40 40 75
-41 168 -79 211 -87 30 -6 125 -12 210 -14 179 -5 245 -20 294 -69 74 -75 194
-296 240 -442 14 -44 50 -180 81 -301 30 -122 69 -266 85 -320 17 -54 29 -103
26 -109 -2 -7 -62 -33 -133 -60 -70 -26 -188 -74 -261 -106 -140 -62 -169 -69
-174 -43 -6 34 13 314 32 449 30 223 33 255 23 255 -6 0 -15 -26 -22 -57 -40
-207 -61 -337 -61 -384 0 -30 -5 -99 -12 -155 -9 -80 -9 -112 1 -155 7 -30 15
-81 18 -114 3 -40 10 -65 22 -75 22 -19 42 -81 44 -140 2 -41 0 -45 -23 -48
-40 -4 -50 9 -41 49 6 24 4 49 -5 74 -7 21 -10 44 -7 51 7 18 -11 18 -26 0 -8
-9 -10 -28 -5 -51 5 -28 0 -52 -21 -103 -48 -118 -59 -135 -125 -202 -42 -41
-79 -91 -102 -137 -34 -66 -38 -84 -49 -200 -6 -70 -12 -155 -14 -188 -1 -33
-5 -73 -10 -88 -5 -21 -3 -33 11 -48 16 -18 17 -27 5 -132 -7 -61 -22 -166
-32 -232 -11 -66 -24 -172 -29 -235 -11 -126 -38 -260 -53 -260 -5 0 -6 10 -2
23 3 12 15 90 26 172 11 83 33 247 49 365 34 244 35 258 15 284 -16 22 -20 67
-6 82 4 5 5 34 2 64 -5 42 -10 54 -21 50 -8 -2 -109 -2 -225 0 -256 5 -433 4
-630 -5 -209 -9 -593 18 -691 50 -19 6 -22 1 -31 -37 -10 -50 -10 -175 2 -232
7 -34 5 -42 -15 -58 l-24 -19 12 -217 c7 -119 15 -266 18 -327 6 -116 11 -165
16 -170 2 -1 28 -12 58 -23 l55 -22 -70 3 -70 2 -2 75 c-1 41 -10 194 -19 338
-16 263 -15 359 7 372 7 5 12 60 13 161 2 85 8 187 14 228 7 41 13 104 14 141
2 69 -13 110 -74 209 -20 32 -28 58 -28 90 0 43 -13 146 -26 200 -9 42 -23 9
-26 -64 l-3 -70 -52 1 c-42 2 -60 8 -91 33 l-40 31 20 67 c61 218 74 257 85
260 9 3 83 -34 83 -42 0 -1 -7 -16 -15 -31 -18 -35 -19 -55 -3 -89 17 -38 28
-30 22 18 -5 37 -3 46 25 74 40 42 48 76 28 119 -9 19 -21 34 -27 34 -16 0
-42 60 -32 73 26 35 43 122 37 196 -6 83 -28 227 -50 336 -8 39 -19 99 -26
135 -11 65 -47 175 -55 167 -2 -2 2 -31 10 -63 9 -32 23 -126 31 -209 9 -82
23 -206 30 -275 17 -145 18 -219 6 -252 -23 -64 -22 -75 14 -118 31 -37 48
-88 27 -78 -4 2 -70 35 -147 74 -77 39 -223 111 -325 159 -102 48 -190 93
-197 99 -9 8 -5 28 17 81 49 118 138 359 215 580 126 361 188 486 306 610 155
163 288 189 508 100z m3395 -252 c3 -32 9 -86 12 -120 l6 -63 -74 -2 c-94 -3
-161 2 -170 10 -4 4 -10 55 -14 114 l-7 107 59 4 c32 2 87 4 120 5 l61 2 7
-57z m-5995 -47 c7 -8 10 -42 7 -87 l-3 -74 -82 -3 c-79 -3 -81 -2 -91 23 -9
23 -9 48 -1 143 1 18 155 17 170 -2z m6763 -331 c4 -82 10 -195 14 -250 4 -55
8 -120 8 -144 l1 -43 -150 -5 c-82 -2 -186 -6 -230 -9 -44 -2 -91 -4 -105 -4
-14 0 -93 0 -175 0 -83 1 -218 -2 -300 -5 -199 -7 -877 -19 -942 -16 -15 1
-34 62 -73 226 -32 137 -82 301 -106 347 -20 38 -18 46 14 50 15 2 479 3 1032
3 l1005 0 7 -150z m-4945 121 c2 -2 -2 -16 -8 -32 -6 -16 -29 -81 -50 -144
-22 -63 -46 -128 -53 -145 -24 -54 -94 -239 -107 -283 -9 -31 -20 -47 -38 -53
-14 -6 -220 -12 -461 -15 -239 -2 -471 -6 -515 -9 -44 -3 -251 -7 -460 -10
-209 -2 -537 -8 -729 -11 l-348 -7 6 239 c3 131 5 289 6 351 l0 112 333 2
c685 3 1209 7 1212 11 4 4 1208 -1 1212 -6z m3955 -640 c4 -6 8 -38 8 -72 l0
-61 -427 -6 c-369 -5 -430 -4 -439 9 -13 17 -28 113 -19 122 3 4 175 10 382
14 206 4 377 8 378 10 8 8 111 -6 117 -16z m323 -57 c4 -33 6 -62 4 -63 -9 -8
-240 -13 -244 -6 -9 14 57 62 130 96 99 46 102 46 110 -27z m-4551 -18 c3 -4
-4 -36 -15 -69 -20 -59 -21 -60 -62 -65 -23 -3 -175 -6 -337 -6 -261 -1 -590
-6 -910 -15 -141 -4 -145 -3 -141 65 1 30 5 56 8 59 2 3 89 8 191 12 103 3
194 7 202 7 8 0 107 1 220 2 171 1 641 11 797 17 23 1 44 -2 47 -7z m-1516
-114 l3 -47 -70 0 c-83 0 -92 13 -33 52 87 59 96 59 100 -5z m6883 -9 c1 -18
2 -49 4 -68 1 -19 5 -91 9 -160 3 -69 8 -177 12 -240 4 -63 7 -130 8 -149 l1
-33 -105 -4 c-99 -3 -739 -16 -935 -19 -49 -1 -284 -5 -521 -9 l-431 -8 -7 53
c-11 80 -17 99 -32 99 -16 0 -18 12 -4 26 10 10 -28 220 -54 293 -9 24 -16 49
-16 55 0 6 23 22 51 36 l51 24 -6 47 -6 47 212 6 c117 4 222 6 233 5 29 -1
1178 22 1182 25 1 0 81 2 177 4 l176 3 1 -33z m-5339 -73 c16 -6 11 -35 -37
-213 -9 -34 -15 -73 -13 -86 1 -13 -2 -29 -8 -37 -16 -21 -41 -122 -59 -234
-10 -63 -21 -104 -31 -111 -9 -8 -77 -12 -187 -13 -186 -2 -297 -8 -305 -15
-2 -3 -2 -11 1 -19 4 -11 48 -13 246 -9 133 2 241 3 241 1 -1 -2 -9 -28 -19
-58 -32 -91 -29 -90 -198 -90 -156 -1 -555 -8 -886 -16 l-198 -5 -8 23 c-10
29 -2 110 13 119 6 4 47 7 91 7 182 -1 691 13 697 19 4 4 3 13 -1 21 -7 11
-35 13 -122 12 -182 -3 -700 -11 -994 -16 -148 -3 -358 -8 -465 -11 -185 -6
-251 -6 -256 -1 -6 5 -36 430 -40 555 l-4 132 62 2 c35 1 162 2 283 3 121 1
249 5 285 9 36 4 238 9 450 11 493 5 974 15 978 20 6 6 468 6 484 0z m161
-120 c118 -85 178 -133 210 -170 96 -111 90 -99 76 -157 -7 -29 -16 -57 -21
-62 -4 -6 -8 -17 -8 -25 0 -35 -16 -41 -125 -46 -176 -8 -262 -39 -360 -131
-32 -30 -60 -53 -62 -51 -3 4 18 94 31 127 3 8 8 26 11 40 17 85 27 124 49
195 15 47 22 83 16 89 -5 5 -5 15 0 25 13 23 44 132 46 158 1 22 29 73 40 73
3 0 47 -29 97 -65z m3086 -37 c7 -29 23 -107 37 -173 13 -66 31 -149 39 -185
8 -36 19 -92 26 -125 19 -103 33 -145 47 -145 14 0 14 13 -4 103 l-6 27 99 1
c92 0 285 4 636 13 109 2 150 0 153 -9 3 -7 6 -36 7 -66 l2 -54 -75 -6 c-41
-4 -153 -8 -248 -10 -95 -1 -175 -6 -178 -11 -3 -4 -10 -5 -16 -2 -16 10 -361
5 -371 -5 -4 -4 -2 -21 5 -37 17 -40 17 -40 31 -21 14 20 70 23 552 32 165 3
464 8 665 12 633 12 735 11 734 -8 -2 -22 14 -313 23 -434 4 -55 8 -138 8
-185 l0 -85 -90 -7 c-49 -3 -301 -11 -560 -17 -258 -7 -549 -14 -645 -16 -96
-3 -262 -7 -368 -9 l-193 -4 -11 26 c-13 35 -37 165 -48 267 -13 112 -53 315
-62 315 -5 0 -8 -21 -8 -47 l0 -48 -35 52 c-56 84 -152 170 -213 193 -29 11
-67 27 -84 36 -16 8 -62 22 -101 30 -40 8 -77 20 -84 27 -6 7 -27 66 -46 132
-19 66 -38 127 -41 135 -5 11 22 44 84 105 49 49 90 95 90 102 0 7 8 13 19 13
10 0 31 10 47 23 47 37 159 116 165 117 3 0 11 -24 18 -52z m-407 -532 c18
-27 6 -34 -64 -38 -40 -3 -76 -3 -80 -1 -16 8 16 52 41 55 38 6 95 -3 103 -16z
m1776 -27 l3 -47 -68 -6 c-96 -8 -183 -6 -183 4 0 25 174 102 220 97 22 -2 25
-7 28 -48z m-6136 -114 c0 -30 1 -61 2 -67 1 -9 -27 -13 -96 -14 -106 -2 -117
5 -75 44 23 22 144 91 160 92 4 0 8 -25 9 -55z m1275 -109 c3 -2 0 -13 -5 -23
-11 -20 -19 -74 -27 -175 -2 -37 -14 -91 -25 -120 -11 -29 -38 -123 -59 -208
-51 -204 -53 -208 -93 -214 -18 -3 -224 -10 -458 -16 -649 -16 -1418 -39
-1483 -45 -41 -3 -59 -1 -62 8 -5 16 -24 741 -20 745 2 2 108 6 237 8 128 2
307 6 398 8 91 3 271 7 400 10 792 19 1135 29 1139 32 5 5 52 -3 58 -10z
m3708 -352 c3 -27 8 -69 11 -94 6 -53 33 -190 39 -200 7 -12 55 -232 55 -254
0 -11 11 -71 26 -132 17 -76 32 -117 47 -132 38 -38 140 -112 154 -112 8 0 40
-13 71 -29 72 -37 176 -51 186 -25 6 16 8 15 21 -2 8 -10 15 -27 15 -36 0 -16
-14 -18 -177 -15 -98 1 -219 -1 -269 -5 -90 -7 -93 -6 -138 22 -27 18 -52 43
-60 62 -27 61 -78 242 -78 273 0 16 10 91 22 165 45 281 50 318 57 443 3 70 8
126 10 124 1 -2 5 -26 8 -53z m-3721 -161 c8 -207 10 -235 26 -382 9 -83 8
-105 -3 -128 -20 -39 -46 -162 -55 -258 -7 -76 -8 -80 -41 -102 -28 -19 -41
-22 -70 -16 -45 10 -290 6 -351 -5 -41 -7 -64 -2 -109 26 -10 5 35 31 55 32
34 0 175 68 224 108 67 54 68 56 105 187 9 33 41 137 71 230 29 94 58 195 65
225 23 115 63 270 69 270 4 0 10 -84 14 -187z m4610 -196 c3 -13 8 -68 11
-123 4 -54 14 -197 23 -318 12 -147 14 -219 7 -222 -27 -9 -217 -19 -222 -11
-2 4 -13 5 -24 2 -16 -5 -19 -1 -19 23 0 38 -14 49 -75 57 -146 21 -266 72
-353 150 -43 39 -51 52 -65 112 -33 141 -62 322 -53 331 4 3 91 8 194 10 103
2 192 5 197 7 6 2 92 4 191 4 l182 1 6 -23z m360 -19 c3 -13 13 -97 21 -188 8
-91 21 -226 30 -300 8 -74 15 -141 15 -147 0 -10 -39 -13 -164 -13 l-164 0 -6
53 c-12 107 -30 344 -31 402 l0 60 130 77 c72 42 137 77 146 77 9 1 19 -9 23
-21z m-5189 -179 c-15 -52 -36 -124 -46 -161 -22 -84 -41 -121 -76 -148 -35
-27 -203 -110 -224 -110 -9 0 -41 -9 -73 -20 -31 -10 -63 -17 -71 -13 -27 10
-16 -6 15 -22 74 -38 10 -53 -247 -57 -120 -1 -207 2 -212 7 -9 10 -33 583
-25 596 7 12 164 19 564 25 217 3 397 8 399 10 3 2 9 0 14 -5 5 -5 -3 -48 -18
-102z m-1010 -116 c4 -104 9 -240 9 -303 l1 -115 -115 0 -115 0 -1 225 c-1
207 1 228 19 262 11 20 27 39 36 42 9 3 28 15 42 26 21 18 89 48 110 50 3 0
10 -84 14 -187z m1305 -227 c28 -193 33 -176 -50 -176 -38 0 -70 2 -70 4 0 2
9 24 20 49 11 25 23 74 26 109 5 53 41 165 51 155 1 -2 12 -65 23 -141z m3561
15 c16 -63 31 -94 57 -123 l34 -38 -76 0 c-54 0 -76 4 -76 13 0 20 22 211 26
226 7 21 10 13 35 -78z m2172 -216 c2 -16 1 -52 -2 -80 l-6 -50 -435 -3 c-239
-2 -441 -7 -450 -11 -8 -4 -35 -6 -60 -4 -25 2 -54 4 -65 5 -11 1 -263 -3
-560 -7 -471 -7 -686 -8 -691 -2 -6 7 23 138 32 147 8 8 156 12 480 14 427 3
1457 17 1461 20 1 0 67 1 146 1 l145 0 5 -30z m-3265 -79 c2 -38 -1 -73 -5
-77 -8 -7 -483 -16 -1198 -21 l-320 -3 -6 75 c-4 49 -2 78 5 83 6 4 142 5 301
1 160 -4 376 -7 480 -8 186 0 486 12 494 20 3 3 59 3 125 2 l121 -3 3 -69z
m2476 -112 l48 -7 -6 -66 c-4 -36 -11 -259 -16 -496 -20 -892 -37 -1504 -46
-1652 l-6 -103 -617 -2 c-339 -1 -748 -3 -909 -3 l-292 0 -9 35 c-5 19 -12 51
-16 70 -4 19 -25 73 -46 119 -39 85 -39 85 -30 160 5 42 13 110 16 152 l7 77
59 -5 c67 -7 78 -1 109 59 17 33 20 50 14 98 -4 38 -3 60 5 64 16 10 14 44 -5
101 -20 57 -14 112 41 359 18 83 41 196 50 251 9 55 25 132 35 170 11 39 28
122 39 185 11 63 32 167 45 230 14 63 28 131 31 151 l5 36 398 6 c218 4 536 7
706 7 170 0 311 2 314 5 7 7 19 6 76 -1z m-3041 -21 c4 -3 131 -5 283 -4 277
2 319 -2 295 -33 -4 -6 -11 -130 -15 -276 -4 -146 -11 -302 -17 -348 -5 -45
-11 -252 -13 -460 -3 -323 -6 -386 -21 -443 -24 -85 -18 -99 38 -99 26 0 49
-6 56 -14 8 -9 9 -53 5 -147 l-7 -134 -54 -105 c-30 -58 -71 -136 -92 -175
l-38 -70 -174 -1 c-763 -5 -1050 -5 -1060 2 -6 4 -24 35 -40 70 -16 35 -43 87
-60 115 -60 96 -85 231 -90 484 l-2 90 48 6 c74 8 95 55 55 121 -15 25 -20 51
-20 108 0 41 -4 90 -10 109 -6 20 -6 40 0 51 6 11 4 25 -4 42 -9 17 -10 31 -4
42 6 10 5 62 -3 139 -9 93 -16 129 -32 151 -17 25 -18 31 -5 40 12 9 14 43 11
209 -1 110 -5 202 -8 207 -4 7 14 292 19 297 2 3 608 13 791 13 66 1 127 5
135 10 18 12 24 12 33 3z m3412 -105 c-8 -155 -24 -543 -30 -718 -3 -91 -10
-237 -15 -325 -13 -214 -34 -805 -34 -985 l-1 -145 -100 -12 c-55 -6 -113 -12
-129 -12 l-28 -1 6 433 c3 237 9 466 11 507 3 41 10 299 16 573 11 533 14 606
26 618 17 17 259 159 270 159 9 0 11 -24 8 -92z m-5253 64 c7 -7 10 -12 6 -12
-3 0 1 -33 9 -72 8 -40 14 -88 14 -107 -1 -18 3 -39 8 -45 5 -6 9 -22 9 -36
-1 -39 19 -122 31 -129 6 -4 7 -18 3 -36 -5 -15 -5 -51 0 -79 22 -151 30 -206
38 -256 37 -222 41 -261 36 -321 -2 -37 -12 -83 -20 -104 -9 -21 -16 -54 -16
-75 0 -30 5 -39 25 -48 14 -7 32 -12 40 -12 20 0 19 -8 -5 -55 -25 -48 -25
-67 -2 -93 13 -16 32 -22 80 -25 34 -2 65 -7 69 -11 7 -6 19 -73 29 -156 18
-158 20 -188 12 -220 -5 -19 -13 -60 -18 -90 -13 -77 -17 -96 -28 -117 -5 -10
-7 -24 -4 -32 2 -7 0 -16 -5 -20 -18 -13 -43 -61 -43 -85 0 -14 -5 -28 -11
-32 -7 -4 -404 -9 -884 -11 l-872 -4 -7 63 c-19 188 -35 289 -46 303 -9 11
-10 19 -1 28 7 10 8 40 0 108 -5 52 -16 155 -24 229 -8 74 -17 171 -20 215 -3
44 -10 116 -15 160 -26 218 -31 260 -36 323 -2 37 -6 81 -9 97 -7 41 -13 102
-25 225 -5 58 -14 148 -19 200 -6 52 -12 122 -15 155 -2 33 -7 84 -11 113 -4
29 -4 53 1 53 38 5 232 8 844 15 388 3 706 8 708 9 10 8 164 -3 174 -13z
m-1777 -84 c2 -7 9 -71 15 -143 6 -71 15 -161 20 -200 5 -38 12 -99 15 -134 3
-35 7 -67 9 -70 2 -3 7 -53 10 -111 4 -58 16 -195 27 -305 11 -110 23 -222 25
-250 3 -27 9 -88 14 -135 4 -47 18 -184 30 -305 35 -365 40 -406 50 -424 5
-11 9 -34 8 -54 l-1 -34 -60 -7 c-101 -10 -137 -8 -131 8 3 8 -1 57 -10 108
-19 115 -59 431 -86 683 -11 105 -31 276 -45 380 -14 105 -28 217 -30 250 -3
33 -10 96 -15 140 -6 44 -17 139 -25 210 -9 72 -20 158 -26 192 -13 73 -16 69
103 149 38 25 70 50 74 55 8 13 24 11 29 -3z m2556 -1533 c4 -60 10 -156 13
-212 5 -73 3 -103 -4 -103 -7 0 -35 16 -64 35 -67 44 -113 45 -215 5 -41 -16
-78 -27 -82 -25 -4 3 -10 62 -14 132 -3 71 -12 159 -20 198 -7 38 -11 73 -9
77 3 4 91 6 197 5 l192 -2 6 -110z m2034 -24 l90 -6 -1 -75 c-3 -114 -14 -190
-30 -190 -7 0 -16 5 -19 11 -4 5 -14 8 -23 6 -10 -2 -29 2 -44 10 -15 7 -33
10 -41 7 -8 -3 -18 -1 -21 4 -8 14 -83 3 -133 -19 -35 -16 -47 -17 -68 -7 -20
9 -25 17 -21 37 3 14 8 74 12 133 l6 108 102 -6 c55 -3 142 -9 191 -13z"/>
<path d="M8710 9595 c-7 -9 -10 -18 -7 -22 8 -7 37 15 37 28 0 14 -16 11 -30
-6z"/>
<path d="M8717 9513 c-17 -16 -5 -33 23 -33 34 0 39 14 11 30 -23 12 -26 12
-34 3z"/>
<path d="M9120 9606 c0 -14 36 -46 52 -46 17 0 7 30 -14 44 -28 20 -38 20 -38
2z"/>
<path d="M9097 9475 c-4 -8 -2 -17 3 -20 12 -7 50 12 50 25 0 16 -47 11 -53
-5z"/>
<path d="M9655 9366 c-33 -14 -58 -55 -46 -75 5 -8 13 -6 26 9 10 11 21 20 24
20 4 0 17 -18 31 -40 38 -62 53 -51 25 17 -19 46 -19 46 10 41 50 -10 36 25
-15 36 -14 3 -39 0 -55 -8z"/>
<path d="M8889 9100 c-13 -10 -22 -20 -19 -20 29 -6 140 -4 140 3 0 9 -62 37
-84 37 -7 0 -24 -9 -37 -20z"/>
<path d="M10230 7600 c0 -11 5 -20 10 -20 6 0 10 9 10 20 0 11 -4 20 -10 20
-5 0 -10 -9 -10 -20z"/>
<path d="M8605 7520 c-7 -12 28 -81 59 -115 30 -33 45 -16 19 23 -10 15 -26
44 -36 65 -17 37 -30 46 -42 27z"/>
<path d="M9507 6502 c-40 -37 -89 -80 -109 -96 -21 -15 -35 -32 -32 -37 8 -13
61 17 124 70 62 52 74 65 95 104 26 45 -1 32 -78 -41z"/>
<path d="M11722 7848 c-23 -23 -7 -68 25 -68 7 0 18 11 25 25 18 40 -20 73
-50 43z"/>
<path d="M11752 7434 c-20 -37 16 -89 48 -69 18 11 11 64 -9 75 -26 13 -28 13
-39 -6z"/>
<path d="M5762 7784 c-12 -8 -22 -23 -22 -33 0 -24 35 -55 54 -48 20 8 32 56
19 75 -14 23 -26 24 -51 6z"/>
<path d="M5767 7353 c-13 -12 -7 -51 9 -68 16 -15 18 -15 37 3 27 27 17 72
-17 72 -12 0 -26 -3 -29 -7z"/>
<path d="M11807 6963 c-10 -9 -8 -55 2 -72 12 -19 39 -7 53 23 8 20 8 29 -2
41 -13 15 -42 20 -53 8z"/>
<path d="M11831 6523 c-6 -12 -5 -26 5 -46 18 -33 35 -31 48 6 16 44 -31 79
-53 40z"/>
<path d="M5744 6866 c-3 -8 -4 -27 -2 -43 2 -22 8 -28 28 -28 31 0 51 45 30
69 -16 20 -49 21 -56 2z"/>
<path d="M5802 6407 c-12 -14 -6 -53 11 -74 12 -16 43 -17 52 -2 9 14 -2 55
-21 73 -19 19 -28 20 -42 3z"/>
<path d="M10830 6058 c0 -30 15 -54 24 -40 8 14 -3 62 -15 62 -5 0 -9 -10 -9
-22z"/>
<path d="M11881 6061 c-30 -30 -26 -85 6 -89 13 -2 27 5 37 20 21 29 20 41 -2
68 l-19 23 -22 -22z"/>
<path d="M11926 5565 c-22 -34 -20 -50 10 -64 20 -9 30 -9 40 0 21 17 18 66
-5 79 -26 14 -26 14 -45 -15z"/>
<path d="M5772 5928 c-17 -17 -15 -54 4 -72 18 -19 20 -19 45 -6 36 20 19 90
-21 90 -9 0 -21 -5 -28 -12z"/>
<path d="M5787 5433 c-12 -11 -7 -59 7 -79 30 -39 71 19 46 65 -10 20 -40 28
-53 14z"/>
<path d="M12924 2283 c-105 -228 -107 -232 -80 -268 25 -35 107 -7 383 131
239 119 298 154 259 154 -9 0 -16 -4 -16 -8 0 -5 -33 -21 -72 -36 -40 -16
-125 -52 -189 -81 -160 -73 -329 -130 -329 -111 0 4 84 250 95 279 4 10 3 17
-4 17 -6 0 -28 -35 -47 -77z"/>
</g>
</svg>
