<?xml version="1.0" standalone="no"?>
<!DOCTYPE svg PUBLIC "-//W3C//DTD SVG 20010904//EN"
 "http://www.w3.org/TR/2001/REC-SVG-20010904/DTD/svg10.dtd">
<svg version="1.0" xmlns="http://www.w3.org/2000/svg"
 width="200.000000pt" height="200.000000pt" viewBox="0 0 200.000000 200.000000"
 preserveAspectRatio="xMidYMid meet">
<metadata>
Created by potrace 1.14, written by Peter Selinger 2001-2017
</metadata>
<g transform="translate(0.000000,200.000000) scale(0.100000,-0.100000)"
fill="#000000" stroke="none">
<path d="M927 1489 c-134 -20 -280 -125 -345 -248 -27 -50 -37 -80 -57 -173
-3 -16 -12 -28 -20 -28 -26 0 -94 -71 -106 -109 -7 -22 -10 -90 -8 -168 4
-124 5 -131 32 -166 37 -48 75 -67 135 -67 54 0 100 25 136 73 18 25 21 45 24
160 2 77 -1 147 -7 168 -13 42 -64 97 -99 106 -22 5 -24 9 -18 47 10 64 60
161 112 216 89 95 240 145 365 122 168 -31 296 -153 335 -318 l12 -53 -44 -26
c-74 -44 -86 -80 -82 -250 3 -159 9 -175 79 -223 28 -20 44 -23 92 -20 69 5
103 27 135 88 19 38 22 60 22 160 0 63 -5 131 -10 151 -11 39 -56 87 -97 104
-22 9 -28 21 -39 72 -51 252 -292 420 -547 382z"/>
</g>
</svg>
